<svg xmlns="http://www.w3.org/2000/svg" viewBox="0 0 24 24"><path fill-rule="evenodd" d="M1.93 5.64c-.04.11-.06.23-.06.36v14c0 .35.05.68.16 1 .02.06.05.13.07.19.03.07.06.13.09.19.15.3.35.58.6.82.24.25.52.45.82.6.06.03.12.06.19.09.06.02.13.05.19.07.32.11.65.16 1.01.16h14c.35 0 .68-.05 1-.16.06-.02.13-.05.19-.07.07-.03.13-.06.19-.09.3-.15.58-.35.82-.6.25-.24.45-.52.6-.82.03-.06.06-.12.09-.19.02-.06.05-.13.07-.19.11-.32.16-.65.16-1V6c0-.13-.02-.25-.06-.36a1.2 1.2 0 0 0-.16-.32l-3-4c-.11-.14-.24-.25-.4-.33-.16-.08-.33-.12-.5-.12H6c-.18 0-.35.04-.51.12-.16.08-.29.19-.4.33l-3 4c-.07.1-.12.2-.16.32zm2.19.73V20c0 .12.02.23.06.33.04.1.11.19.2.28.09.09.18.16.28.2.1.04.21.06.34.06h14c.12 0 .23-.02.33-.06.1-.04.19-.11.28-.2.09-.09.16-.18.2-.28.04-.1.06-.21.06-.33V6.37l-2.44-3.25H6.56L4.12 6.37z"/><path d="M3 4.87h18c.63 0 1.12.5 1.12 1.13 0 .63-.49 1.12-1.12 1.12H3c-.64 0-1.13-.49-1.13-1.12 0-.63.49-1.13 1.13-1.13zM9.12 10c0 .4.07.77.21 1.1.14.33.35.64.63.93.29.28.6.49.93.63.33.14.7.21 1.11.21.4 0 .77-.07 1.1-.21.33-.14.64-.35.93-.63.28-.29.49-.6.63-.93.14-.33.21-.7.21-1.1 0-.63.5-1.13 1.13-1.13.62 0 1.12.5 1.12 1.13 0 .62-.1 1.22-.3 1.77-.03.06-.05.13-.08.19-.02.06-.05.13-.08.19-.25.53-.6 1.02-1.04 1.47-.45.44-.94.79-1.47 1.04-.06.03-.13.06-.19.08-.06.03-.13.05-.19.08-.55.2-1.15.3-1.77.3-.63 0-1.23-.1-1.78-.3-.06-.03-.13-.05-.19-.08-.06-.02-.13-.05-.19-.08-.53-.25-1.02-.6-1.47-1.04-.44-.45-.79-.94-1.04-1.47-.03-.06-.06-.13-.08-.19-.03-.06-.05-.13-.08-.19-.2-.55-.3-1.15-.3-1.77 0-.63.5-1.13 1.13-1.13.63 0 1.12.5 1.12 1.13z"/></svg>
