<svg xmlns="http://www.w3.org/2000/svg" viewBox="0 0 24 24"><path fill-rule="evenodd" d="M3 4.87h18c.63 0 1.12.5 1.12 1.13 0 .63-.49 1.12-1.12 1.12H3c-.64 0-1.13-.49-1.13-1.12 0-.63.49-1.13 1.13-1.13zm0 6h7c.63 0 1.12.5 1.12 1.13 0 .63-.49 1.12-1.12 1.12H3c-.64 0-1.13-.49-1.13-1.12 0-.63.49-1.13 1.13-1.13zm0 6h7c.63 0 1.12.5 1.12 1.13 0 .62-.49 1.12-1.12 1.12H3c-.64 0-1.13-.5-1.13-1.12 0-.63.49-1.13 1.13-1.13zM12.87 15c0-2.28 1.85-4.13 4.13-4.13A4.13 4.13 0 0121.12 15c0 2.27-1.85 4.12-4.12 4.12A4.13 4.13 0 0112.87 15zm2.25 0a1.876 1.876 0 113.749-.009A1.876 1.876 0 0115.12 15z"/><path  d="M19.89 16.3l1.9 1.9c.45.44.45 1.15 0 1.59-.44.45-1.14.45-1.59 0l-1.9-1.9c-.45-.44-.45-1.15 0-1.59.44-.45 1.15-.45 1.59 0z"/></svg>
