<svg xmlns="http://www.w3.org/2000/svg" viewBox="0 0 24 24"><path fill-rule="evenodd" d="M.87 12C.87 5.85 5.85.87 12 .87 18.14.87 23.12 5.85 23.12 12c0 6.14-4.98 11.12-11.12 11.12C5.85 23.12.87 18.14.87 12zm2.25 0c0-4.91 3.97-8.88 8.88-8.88 4.9 0 8.87 3.97 8.87 8.88 0 4.9-3.97 8.87-8.87 8.87-4.91 0-8.88-3.97-8.88-8.87z"/><path fill-rule="evenodd" d="M7.87 10c0-2.28 1.85-4.13 4.13-4.13A4.13 4.13 0 0116.12 10c0 2.27-1.85 4.12-4.12 4.12A4.13 4.13 0 017.87 10zm2.25 0a1.876 1.876 0 113.749-.009A1.876 1.876 0 0110.12 10zM5.87 19v1.66c0 .63.5 1.12 1.13 1.12.63 0 1.12-.49 1.12-1.12V19c0-.13.02-.24.06-.34.04-.1.11-.19.2-.28.09-.09.18-.16.28-.2.1-.04.21-.06.34-.06h6c.12 0 .23.02.33.06.1.04.19.11.28.2.09.09.16.18.2.28.04.1.06.21.06.34v1.66c0 .63.5 1.12 1.13 1.12.62 0 1.12-.49 1.12-1.12V19c0-.36-.05-.69-.16-1.01-.02-.06-.05-.13-.07-.19-.03-.07-.06-.13-.09-.19-.15-.3-.35-.58-.6-.82-.24-.25-.52-.45-.82-.6-.06-.03-.12-.06-.19-.09-.06-.02-.13-.05-.19-.07-.32-.11-.65-.16-1-.16H9c-.36 0-.69.05-1.01.16-.06.02-.13.05-.19.07-.07.03-.13.06-.19.09-.3.15-.58.35-.82.6-.25.24-.45.52-.6.82-.03.06-.06.12-.09.19-.02.06-.05.13-.07.19-.11.32-.16.65-.16 1.01z"/></svg>
