<svg xmlns="http://www.w3.org/2000/svg" width="56" height="56" fill="none" viewBox="0 0 512 512"><defs><clipPath id="a"><path fill="#fff" fill-opacity="0" d="M0 0h512v512H0z"/></clipPath></defs><g clip-path="url(#a)"><path fill="#CFE79A" fill-rule="evenodd" d="M212.4 230.58C300.02 116.42 131.62 24.94 61.5 9.08c-10.91 71.06 12.6 261.26 150.9 221.5zM186.82 286.15C96.6 230.93 42.74 361.09 36.57 413.58c52.78 2.48 190-29.4 150.25-127.43zM242.19 270.37C162.2 428.91 387.38 501.11 476.03 504.22c-3.1-88.65-75.31-313.83-233.84-233.85z"/><path fill="#CFE79A" fill-rule="evenodd" d="M279.31 206.48c112.38 68.79 179.47-93.35 187.16-158.73-65.75-3.09-236.68 36.62-187.16 158.73z"/><path fill="#82AF4D" fill-rule="evenodd" d="M212.4 230.58c5.77-7.52 10.41-14.93 14.06-22.24C103.46 242.89 71.8 94.84 74.3 12.51c-4.53-1.38-8.83-2.53-12.8-3.43-10.91 71.06 12.6 261.26 150.9 221.5zM40.98 391.2c-2.17 8.3-3.66 15.93-4.41 22.38 48.64 2.28 168.99-24.61 156.46-105.57-10.28 61.46-106.16 83.69-152.05 83.19zM279.31 206.48c8.06 4.93 15.87 8.64 23.46 11.32-30.55-93.8 54.2-147.92 125.94-168.15-76.5 9.62-191.1 54.01-149.4 156.83zM236.48 282.84c-62.33 149.85 153.26 218.35 239.55 221.38-.24-6.93-.9-14.68-2-23.06-86.63-6.96-269.35-69.02-237.55-198.32z"/><path fill="#000" d="M385.8 296.94l10.59-10.62c-3.84-3.83-7.74-7.39-11.59-10.57l-9.56 11.55c3.49 2.89 7.04 6.13 10.56 9.64z"/><path fill="#000" d="M483.53 503.96c-1.65-46.94-23.87-144.41-76.51-206.14l-11.42 9.73c27.12 31.81 44.18 72.51 53.71 101.06 10 29.96 16.83 62.01 18.77 87.65-61.33-4.73-179.13-39.18-220.65-109.35-18.4-31.09-19.39-65.93-2.99-103.68l162.38 162.38 10.6-10.61-162.37-162.38c39.79-17.27 76.32-15.22 108.71 6.18l8.27-12.51c-38.21-25.25-81.1-27.03-127.54-5.36l-6.63-8.85 42.29-36.42c17.77 10.02 35.23 15.05 52.24 15.05 13.34 0 26.41-3.09 39.13-9.27 34.56-16.79 58.47-52.96 72.45-80.35 18.28-35.82 27.45-71.25 29.95-92.46l.94-7.99-8.04-.38c-21.33-1.01-57.79 2.27-96.11 14.45-29.31 9.32-68.9 27-91.1 58.35-18.62 26.28-21.69 56.94-9.19 91.18l-41.57 35.81-7.1-9.5c23.05-32.27 28.73-65.27 16.84-98.17-14.2-39.28-50.62-69.29-78.67-87.56C123.19 20.91 85.85 6.9 63.15 1.77L55.31 0l-1.22 7.95c-5 32.56-2.89 90.02 13.56 139.24l14.22-4.75c-14.34-42.93-17.25-92.31-14-124 48.18 13.49 134.57 58.07 156.61 119.04 9.58 26.5 5.55 53.36-11.94 79.98L117.91 78.57l-12.39 8.45 94.62 138.89c-26.18 5.49-49.08 2.1-68.18-10.14-18.56-11.89-33.72-31.99-45.05-59.73l-13.89 5.68c12.53 30.65 29.63 53.09 50.85 66.68 15.7 10.06 33.37 15.1 52.82 15.1 10.42 0 21.35-1.45 32.76-4.35l8.01 10.71-31.49 27.12c-25.59-14.14-50.4-15.55-73.83-4.17-52.83 25.67-79.13 106.82-83.02 139.89l-.94 7.99 8.03.38c1.76.08 3.66.12 5.68.12 36.36 0 113.74-13.79 145.89-59.19 15.07-21.27 17.72-46.01 7.91-73.6l30.78-26.51 6.96 9.3c-21.28 44.67-20.92 86.15 1.09 123.36 25.99 43.93 76.7 71.75 114.66 87.34 49.81 20.46 98.05 28.82 126.59 29.82l8.04.29-.28-8.04zM291.85 121.73c33.99-48 120.09-66.28 165.96-66.64-7.84 45.2-39.94 127.16-92.84 152.86-22.76 11.06-47.13 10.12-72.57-2.74l118.56-100.52-9.7-11.44L282.7 193.77c-8.53-27.19-5.48-51.39 9.15-72.04zm-116.3 231.6c-15.67 22.12-44.65 34.92-66.2 41.78-24.37 7.75-48.05 10.72-64.05 11.06 2.95-15.73 9.75-38.6 21.38-61.38 10.27-20.15 27.64-46.65 52.02-58.49 8.22-3.99 16.71-5.99 25.44-5.99 9.57 0 19.42 2.4 29.49 7.19l-76.04 64.49 9.7 11.44 76.04-64.49c5.88 20.5 3.29 38.76-7.78 54.39z"/><path fill="#FFF" d="M428.03 466.82l-10.61-10.61 10.61-10.6 10.6 10.6-10.6 10.61zM84.41 382.83l-9.7-11.43 11.44-9.7 9.7 11.43-11.44 9.7zM422.39 94.95l-9.73-11.42 11.42-9.73 9.73 11.42-11.42 9.73zM96.66 74.01l-8.45-12.39 12.4-8.45 8.44 12.4-12.39 8.44z"/></g></svg>
